<?xml version="1.0" encoding="utf-8"?>
<svg viewBox="0 0 3 3" fill="currentColor" xmlns="http://www.w3.org/2000/svg">
  <path d="M 0.842 2.265 C 0.89 2.281 0.916 2.334 0.9 2.382 L 0.809 2.662 C 0.784 2.729 0.698 2.743 0.653 2.688 C 0.633 2.664 0.627 2.633 0.636 2.603 L 0.727 2.324 C 0.743 2.275 0.794 2.248 0.842 2.265 Z M 1.938 2.265 C 1.986 2.281 2.012 2.334 1.997 2.382 L 1.904 2.662 C 1.88 2.729 1.793 2.743 1.749 2.688 C 1.73 2.664 1.723 2.633 1.732 2.603 L 1.823 2.324 C 1.839 2.275 1.891 2.248 1.938 2.265 Z M 1.299 2.544 C 1.347 2.56 1.373 2.613 1.357 2.662 L 1.266 2.941 C 1.241 3.008 1.154 3.022 1.109 2.967 C 1.09 2.943 1.083 2.912 1.093 2.882 L 1.183 2.603 C 1.2 2.554 1.252 2.527 1.299 2.544 Z M 2.395 2.544 C 2.443 2.56 2.47 2.613 2.453 2.662 L 2.362 2.941 C 2.342 3.01 2.257 3.031 2.208 2.979 C 2.184 2.953 2.176 2.916 2.189 2.882 L 2.28 2.603 C 2.296 2.554 2.347 2.527 2.395 2.544 Z M 2.532 0.961 C 2.395 0.258 1.563 -0.03 1.033 0.442 C 0.931 0.533 0.85 0.647 0.797 0.775 C 0.308 0.717 -0.059 1.221 0.137 1.681 C 0.238 1.919 0.468 2.073 0.723 2.074 L 2.458 2.074 C 2.879 2.074 3.143 1.609 2.933 1.236 C 2.848 1.086 2.7 0.985 2.532 0.961 Z M 1.636 0.398 C 2.008 0.398 2.321 0.683 2.362 1.06 C 2.367 1.107 2.407 1.143 2.453 1.143 L 2.458 1.143 C 2.739 1.143 2.914 1.453 2.774 1.701 C 2.709 1.816 2.588 1.887 2.458 1.887 L 0.723 1.887 C 0.371 1.887 0.151 1.499 0.327 1.189 C 0.429 1.009 0.635 0.92 0.833 0.97 C 0.879 0.982 0.927 0.955 0.942 0.909 C 1.041 0.604 1.32 0.398 1.636 0.398 Z" style="fill: rgba(0, 0, 0, 0.9);"/>
</svg>