<svg width="100px" height="100px" viewBox="0 0 100 100" style="fill-rule:evenodd;clip-rule:evenodd;stroke-linejoin:round;stroke-miterlimit:2;" version="1.1" xml:space="preserve" xmlns="http://www.w3.org/2000/svg" xmlns:serif="http://www.serif.com/" xmlns:xlink="http://www.w3.org/1999/xlink"><path d="M44.603 51.837c0.409 0.375 0.981 0.506 1.512 0.347c1.335 -0.406 2.732 -0.622 4.172 -0.622c4.385 0 8.369 2 11.369 5.24c0.359 0.391 0.89 0.569 1.409 0.481c10.3 -1.756 18.153 -10.735 18.153 -21.532c0 -12.056 -9.787 -21.844 -21.844 -21.844c-12.056 0 -21.844 9.787 -21.844 21.844c0 6.359 2.725 12.091 7.072 16.084Zm18.738 2.212c8.428 -1.822 14.753 -9.328 14.753 -18.297c0 -10.332 -8.387 -18.719 -18.719 -18.719c-10.332 0 -18.719 8.387 -18.719 18.719c0 5.144 2.082 9.806 5.447 13.194c1.35 -0.335 2.75 -0.509 4.184 -0.509c4.969 0 9.531 2.1 13.053 5.612Z" style="fill:#32b2ff;"/><path d="M36.353 23.791l-5.34 -3.25c-0.738 -0.45 -1.7 -0.215 -2.147 0.522c-0.45 0.738 -0.215 1.7 0.522 2.147l5.34 3.25c0.738 0.45 1.7 0.215 2.147 -0.522c0.45 -0.738 0.215 -1.7 -0.522 -2.147Z" style="fill:#32b2ff;"/><path d="M84.731 25.969l5.34 -3.253c0.735 -0.447 0.969 -1.409 0.522 -2.147c-0.45 -0.735 -1.413 -0.969 -2.147 -0.522l-5.34 3.25c-0.738 0.45 -0.972 1.413 -0.522 2.147c0.447 0.738 1.409 0.972 2.147 0.525Z" style="fill:#32b2ff;"/><path d="M52.078 11.369l-3 -5.487c-0.412 -0.756 -1.363 -1.034 -2.119 -0.619c-0.756 0.412 -1.034 1.363 -0.622 2.119l3 5.487c0.412 0.756 1.363 1.034 2.122 0.619c0.756 -0.412 1.034 -1.363 0.619 -2.119Z" style="fill:#32b2ff;"/><path d="M70.115 12.387l3 -5.375c0.419 -0.753 0.15 -1.706 -0.603 -2.128c-0.753 -0.419 -1.706 -0.15 -2.128 0.603l-3 5.375c-0.419 0.753 -0.15 1.706 0.603 2.128c0.753 0.419 1.706 0.15 2.128 -0.603Z" style="fill:#32b2ff;"/><path d="M35.041 45.228l-5.644 2.591c-0.784 0.359 -1.128 1.288 -0.769 2.072c0.359 0.784 1.288 1.128 2.072 0.769l5.644 -2.591c0.784 -0.359 1.128 -1.288 0.769 -2.072c-0.359 -0.784 -1.288 -1.128 -2.072 -0.769Z" style="fill:#32b2ff;"/><path d="M83.115 47.578l5.644 2.587c0.781 0.359 1.712 0.015 2.072 -0.769c0.359 -0.784 0.013 -1.712 -0.769 -2.072l-5.644 -2.587c-0.784 -0.359 -1.712 -0.015 -2.072 0.769c-0.359 0.781 -0.015 1.712 0.769 2.072Z" style="fill:#32b2ff;"/><path d="M35.541 55.947c3.684 -4.638 8.938 -7.51 14.747 -7.51c6.369 0 12.075 3.457 15.772 8.903c2.278 -1.315 4.872 -2.059 7.625 -2.059c8.978 0 16.35 7.956 16.35 17.847c0 9.887 -7.372 17.844 -16.35 17.844c-3.275 0 -6.328 -1.05 -8.894 -2.869c-3.668 4.46 -8.822 7.21 -14.503 7.21c-5.809 0 -11.063 -2.872 -14.747 -7.51c-2.219 1.228 -4.728 1.915 -7.378 1.915c-8.982 0 -16.35 -7.956 -16.35 -17.844c0 -9.887 7.369 -17.844 16.35 -17.844c2.65 0 5.16 0.688 7.378 1.915Zm-0.481 3.369c0.707 0.484 1.675 0.306 2.163 -0.397c3.103 -4.469 7.794 -7.356 13.066 -7.356c5.797 0 10.887 3.487 13.941 8.735c0.222 0.381 0.597 0.65 1.028 0.741c0.431 0.09 0.881 -0.003 1.238 -0.263c2.066 -1.494 4.535 -2.369 7.191 -2.369c7.34 0 13.225 6.638 13.225 14.722c0 8.085 -5.885 14.719 -13.225 14.719c-3.078 0 -5.903 -1.172 -8.143 -3.128c-0.335 -0.29 -0.775 -0.425 -1.212 -0.372c-0.438 0.05 -0.835 0.287 -1.091 0.647c-3.1 4.375 -7.744 7.194 -12.95 7.194c-5.272 0 -9.963 -2.888 -13.066 -7.356c-0.487 -0.703 -1.456 -0.881 -2.163 -0.397c-2.006 1.369 -4.365 2.159 -6.897 2.159c-7.34 0 -13.225 -6.635 -13.225 -14.719c0 -8.085 5.885 -14.719 13.225 -14.719c2.531 0 4.891 0.79 6.897 2.159Z" style="fill:#32b2ff;"/></svg>