<?xml version="1.0" encoding="utf-8"?>
<svg viewBox="0 0 500 500" xmlns="http://www.w3.org/2000/svg" xmlns:bx="https://boxy-svg.com">
  <path d="M 50.801 13.233 C 52.158 14.598 52.374 16.509 51.345 18.059 C 47.414 24.028 45.361 30.719 45.374 37.516 C 45.374 60.128 67.666 78.439 95.138 78.439 C 98.722 78.439 102.211 78.129 105.561 77.539 C 107.663 77.163 109.833 77.863 111.07 79.316 C 112.385 80.836 112.297 82.896 110.859 84.338 C 100.059 95.31 83.85 101.67 66.742 101.647 C 35.392 101.647 10 80.761 10 55.029 C 10 35.66 24.375 19.048 44.845 12.008 C 46.939 11.276 49.365 11.775 50.801 13.233 Z M 43.035 19.043 C 27 26.157 16.988 39.98 16.97 55.029 C 16.97 77.635 39.268 95.945 66.742 95.945 C 80.028 95.964 92.774 91.586 102.135 83.786 C 99.843 84.023 97.511 84.141 95.138 84.141 C 63.79 84.141 38.404 63.256 38.404 37.522 C 38.404 30.96 40.049 24.711 43.035 19.043 Z" style="" transform="matrix(0.999886, 0.015101, -0.015101, 0.999886, 0.861902, -0.824094)" bx:origin="0.441177 0.5"/>
</svg>